<svg width="25" height="24" viewBox="0 0 25 24" fill="none" xmlns="http://www.w3.org/2000/svg">
<rect width="24" height="24" transform="translate(0.800049)" fill="#1652F0"/>
<path fill-rule="evenodd" clip-rule="evenodd" d="M21.8 12C21.8 7.02917 17.7709 3 12.8 3C7.82922 3 3.80005 7.02917 3.80005 12C3.80005 16.9708 7.82922 21 12.8 21C17.7709 21 21.8 16.9708 21.8 12ZM15.0159 9.12332H10.5833C10.2194 9.12332 9.92346 9.4416 9.92346 9.83286V14.1661C9.92346 14.5574 10.2184 14.8757 10.5833 14.8757H15.0159C15.3798 14.8757 15.6758 14.5584 15.6758 14.1661V9.83286C15.6758 9.4416 15.3808 9.12332 15.0159 9.12332Z" fill="white"/>
</svg>
