<svg width="25" height="24" viewBox="0 0 25 24" fill="none" xmlns="http://www.w3.org/2000/svg">
<rect width="24" height="24" transform="translate(0.200073)" fill="#12FF80"/>
<path fill-rule="evenodd" clip-rule="evenodd" d="M7.26149 8.11521C7.26149 7.53061 7.73542 7.06057 8.31597 7.06057H16.0765C16.661 7.06057 17.131 6.58657 17.131 6.00593V4.05464C17.131 3.47005 16.657 3 16.0765 3H7.86575C7.28124 3 6.81126 3.474 6.81126 4.05464V5.55958C6.81126 6.14417 6.33734 6.61422 5.75678 6.61422H4.25602C3.67151 6.61422 3.20154 7.08822 3.20154 7.66886V10.9631C3.20154 11.5477 3.67546 11.9941 4.25997 11.9941H6.21096C6.79547 11.9941 7.26544 11.5201 7.26544 10.9394L7.26149 8.11521ZM20.1443 11.9941H18.1933C17.6088 11.9941 17.1388 12.4681 17.1388 13.0487V15.8808C17.1388 16.4654 16.6649 16.9355 16.0843 16.9355H8.31592C7.73141 16.9355 7.26144 17.4095 7.26144 17.9901V19.9454C7.26144 20.53 7.73536 21 8.31592 21H16.5306C17.1151 21 17.5772 20.526 17.5772 19.9454V18.3812C17.5772 17.7966 18.0511 17.3858 18.6317 17.3858H20.1443C20.7288 17.3858 21.1988 16.9118 21.1988 16.3311V13.0408C21.1988 12.4523 20.7248 11.9941 20.1443 11.9941ZM13.1539 9.94404H11.278C10.6698 9.94404 10.1721 10.4378 10.1721 11.05V12.9263C10.1721 13.5346 10.6658 14.0323 11.278 14.0323H13.1539C13.7621 14.0323 14.2597 13.5385 14.2597 12.9263V11.05C14.2597 10.4417 13.7661 9.94404 13.1539 9.94404Z" fill="black"/>
</svg>
