<svg width="24" height="24" viewBox="0 0 24 24" fill="none" xmlns="http://www.w3.org/2000/svg">
<rect width="24" height="24" fill="white"/>
<rect width="24" height="24" fill="url(#paint0_linear_326_355)"/>
<path d="M19.9412 11.8607H17.9258C17.9258 7.82127 14.5846 4.54688 10.4627 4.54688C6.39193 4.54688 3.08232 7.7411 3.00132 11.7113C2.91752 15.8152 6.84633 19.3789 11.0345 19.3789H11.5613C15.2538 19.3789 20.2028 16.5463 20.976 13.0949C21.1188 12.4587 20.606 11.8607 19.9412 11.8607ZM7.46773 12.0406C7.46773 12.5808 7.01693 13.0226 6.46573 13.0226C5.91452 13.0226 5.46372 12.5806 5.46372 12.0406V10.452C5.46372 9.91182 5.91452 9.47003 6.46573 9.47003C7.01693 9.47003 7.46773 9.91182 7.46773 10.452V12.0406ZM10.9471 12.0406C10.9471 12.5808 10.4963 13.0226 9.94515 13.0226C9.39394 13.0226 8.94314 12.5806 8.94314 12.0406V10.452C8.94314 9.91182 9.39413 9.47003 9.94515 9.47003C10.4963 9.47003 10.9471 9.91182 10.9471 10.452V12.0406Z" fill="black"/>
<path d="M19.9412 11.8607H17.9258C17.9258 7.82127 14.5846 4.54688 10.4627 4.54688C6.39193 4.54688 3.08232 7.7411 3.00132 11.7113C2.91752 15.8152 6.84633 19.3789 11.0345 19.3789H11.5613C15.2538 19.3789 20.2028 16.5463 20.976 13.0949C21.1188 12.4587 20.606 11.8607 19.9412 11.8607ZM7.46773 12.0406C7.46773 12.5808 7.01693 13.0226 6.46573 13.0226C5.91452 13.0226 5.46372 12.5806 5.46372 12.0406V10.452C5.46372 9.91182 5.91452 9.47003 6.46573 9.47003C7.01693 9.47003 7.46773 9.91182 7.46773 10.452V12.0406ZM10.9471 12.0406C10.9471 12.5808 10.4963 13.0226 9.94515 13.0226C9.39394 13.0226 8.94314 12.5806 8.94314 12.0406V10.452C8.94314 9.91182 9.39413 9.47003 9.94515 9.47003C10.4963 9.47003 10.9471 9.91182 10.9471 10.452V12.0406Z" fill="url(#paint1_linear_326_355)"/>
<defs>
<linearGradient id="paint0_linear_326_355" x1="12" y1="0" x2="12" y2="24" gradientUnits="userSpaceOnUse">
<stop stop-color="#534BB1"/>
<stop offset="1" stop-color="#551BF9"/>
</linearGradient>
<linearGradient id="paint1_linear_326_355" x1="12" y1="4.54688" x2="12" y2="19.3789" gradientUnits="userSpaceOnUse">
<stop stop-color="white"/>
<stop offset="1" stop-color="white" stop-opacity="0.82"/>
</linearGradient>
</defs>
</svg>
