<svg width="25" height="24" viewBox="0 0 25 24" fill="none" xmlns="http://www.w3.org/2000/svg">
<rect width="24" height="24" transform="translate(0.400024)" fill="#141414"/>
<path d="M6.26455 7.47021C9.65287 4.15373 15.1472 4.15373 18.5355 7.47021L18.9435 7.8692C18.9837 7.90818 19.0157 7.95484 19.0375 8.00641C19.0594 8.05798 19.0706 8.11342 19.0706 8.16942C19.0706 8.22543 19.0594 8.28087 19.0375 8.33244C19.0157 8.38401 18.9837 8.43067 18.9435 8.46965L17.5485 9.83496C17.5073 9.87483 17.4523 9.89713 17.395 9.89713C17.3377 9.89713 17.2826 9.87483 17.2415 9.83496L16.6803 9.28558C14.3167 6.97246 10.484 6.97246 8.11977 9.28558L7.51876 9.87368C7.47761 9.91355 7.42257 9.93585 7.36528 9.93585C7.30799 9.93585 7.25294 9.91355 7.2118 9.87368L5.81674 8.50837C5.77652 8.46939 5.74455 8.42273 5.72271 8.37116C5.70087 8.31959 5.68962 8.26415 5.68962 8.20814C5.68962 8.15214 5.70087 8.0967 5.72271 8.04513C5.74455 7.99356 5.77652 7.9469 5.81674 7.90792L6.26455 7.47021ZM21.4211 10.2934L22.6624 11.5089C22.7026 11.5479 22.7346 11.5946 22.7564 11.6461C22.7782 11.6977 22.7895 11.7531 22.7895 11.8091C22.7895 11.8651 22.7782 11.9206 22.7564 11.9722C22.7346 12.0237 22.7026 12.0704 22.6624 12.1094L17.0642 17.5886C16.982 17.6685 16.8718 17.7131 16.7572 17.7131C16.6426 17.7131 16.5325 17.6685 16.4503 17.5886L12.4772 13.6997C12.4567 13.6796 12.4291 13.6684 12.4003 13.6684C12.3716 13.6684 12.344 13.6796 12.3235 13.6997L8.3504 17.5886C8.26819 17.6685 8.15807 17.7131 8.04345 17.7131C7.92882 17.7131 7.81871 17.6685 7.73649 17.5886L2.13775 12.1094C2.09753 12.0704 2.06555 12.0237 2.04371 11.9722C2.02187 11.9206 2.01062 11.8651 2.01062 11.8091C2.01062 11.7531 2.02187 11.6977 2.04371 11.6461C2.06555 11.5946 2.09753 11.5479 2.13775 11.5089L3.3796 10.2934C3.46179 10.2137 3.57179 10.1692 3.68628 10.1692C3.80077 10.1692 3.91077 10.2137 3.99296 10.2934L7.96601 14.1823C7.98656 14.2024 8.01415 14.2136 8.04288 14.2136C8.07162 14.2136 8.09922 14.2024 8.11977 14.1823L12.0928 10.2934C12.175 10.2136 12.2851 10.1689 12.3998 10.1689C12.5144 10.1689 12.6245 10.2136 12.7067 10.2934L16.6803 14.1823C16.7009 14.2024 16.7285 14.2136 16.7572 14.2136C16.7859 14.2136 16.8135 14.2024 16.8341 14.1823L20.8071 10.2934C20.8894 10.2136 20.9995 10.1689 21.1141 10.1689C21.2287 10.1689 21.3388 10.2136 21.4211 10.2934Z" fill="white"/>
</svg>
