<svg width="24" height="24" viewBox="0 0 24 24" fill="none" xmlns="http://www.w3.org/2000/svg">
<g clip-path="url(#clip0_341_499)">
<path d="M17.4913 2H6.50875C4.01864 2 2 4.01864 2 6.50875V17.4913C2 19.9814 4.01864 22 6.50875 22H17.4913C19.9814 22 22 19.9814 22 17.4913V6.50875C22 4.01864 19.9814 2 17.4913 2Z" fill="#06C755"/>
<path d="M18.6662 11.0575C18.6662 8.07374 15.675 5.64624 11.9981 5.64624C8.32121 5.64624 5.32996 8.07374 5.32996 11.0575C5.32996 13.7325 7.70496 15.9731 10.9062 16.3962C11.1237 16.4431 11.4193 16.5394 11.4937 16.725C11.5612 16.8937 11.5381 17.1581 11.5156 17.3281C11.5156 17.3281 11.4375 17.7987 11.4206 17.8987C11.3912 18.0675 11.2862 18.5581 11.9981 18.2587C12.71 17.9594 15.8381 15.9975 17.2368 14.3869C18.2031 13.3275 18.6662 12.25 18.6662 11.0575Z" fill="white"/>
<path d="M16.4475 12.7806H14.5725C14.5394 12.7806 14.5076 12.7675 14.4841 12.744C14.4607 12.7206 14.4475 12.6888 14.4475 12.6556V9.74625C14.4475 9.71309 14.4607 9.6813 14.4841 9.65786C14.5076 9.63442 14.5394 9.62125 14.5725 9.62125H16.4475C16.4807 9.62125 16.5125 9.63442 16.5359 9.65786C16.5593 9.6813 16.5725 9.71309 16.5725 9.74625V10.2194C16.5725 10.2525 16.5593 10.2843 16.5359 10.3078C16.5125 10.3312 16.4807 10.3444 16.4475 10.3444H15.1744V10.835H16.4475C16.4807 10.835 16.5125 10.8482 16.5359 10.8716C16.5593 10.895 16.5725 10.9268 16.5725 10.96V11.4375C16.5725 11.4706 16.5593 11.5024 16.5359 11.5259C16.5125 11.5493 16.4807 11.5625 16.4475 11.5625H15.1744V12.0537H16.4475C16.4807 12.0537 16.5125 12.0669 16.5359 12.0904C16.5593 12.1138 16.5725 12.1456 16.5725 12.1787V12.6512C16.5731 12.668 16.5703 12.6848 16.5643 12.7004C16.5583 12.7161 16.5491 12.7304 16.5375 12.7425C16.5258 12.7546 16.5118 12.7642 16.4964 12.7707C16.4809 12.7773 16.4643 12.7806 16.4475 12.7806Z" fill="#06C755"/>
<path d="M9.51814 12.7806C9.5513 12.7806 9.58309 12.7675 9.60653 12.744C9.62998 12.7206 9.64314 12.6888 9.64314 12.6556V12.1831C9.64314 12.15 9.62998 12.1182 9.60653 12.0947C9.58309 12.0713 9.5513 12.0581 9.51814 12.0581H8.24502V9.74564C8.24502 9.71248 8.23185 9.68069 8.20841 9.65725C8.18497 9.63381 8.15317 9.62064 8.12002 9.62064H7.64502C7.61187 9.62064 7.58007 9.63381 7.55663 9.65725C7.53319 9.68069 7.52002 9.71248 7.52002 9.74564V12.6538C7.52002 12.6869 7.53319 12.7187 7.55663 12.7421C7.58007 12.7656 7.61187 12.7788 7.64502 12.7788H9.52002L9.51814 12.7806Z" fill="#06C755"/>
<path d="M10.6457 9.61563H10.1732C10.1027 9.61563 10.0457 9.67271 10.0457 9.74313V12.6531C10.0457 12.7235 10.1027 12.7806 10.1732 12.7806H10.6457C10.7161 12.7806 10.7732 12.7235 10.7732 12.6531V9.74313C10.7732 9.67271 10.7161 9.61563 10.6457 9.61563Z" fill="#06C755"/>
<path d="M13.865 9.61563H13.3925C13.3593 9.61563 13.3275 9.6288 13.3041 9.65224C13.2806 9.67568 13.2675 9.70748 13.2675 9.74063V11.4694L11.9362 9.67126C11.9332 9.6665 11.9296 9.66209 11.9256 9.65813L11.9181 9.65063L11.9112 9.64501H11.9075L11.9006 9.64001H11.8968L11.89 9.63626H11.8856H11.8787H11.8743H11.8668H11.8618H11.8543H11.8493H11.8425H11.3606C11.3274 9.63626 11.2956 9.64943 11.2722 9.67287C11.2488 9.69631 11.2356 9.7281 11.2356 9.76126V12.6713C11.2356 12.7044 11.2488 12.7362 11.2722 12.7596C11.2956 12.7831 11.3274 12.7963 11.3606 12.7963H11.8337C11.8669 12.7963 11.8987 12.7831 11.9221 12.7596C11.9456 12.7362 11.9587 12.7044 11.9587 12.6713V10.9256L13.2918 12.7256C13.3006 12.7384 13.3116 12.7494 13.3243 12.7581L13.3318 12.7631H13.3356L13.3418 12.7663H13.3481H13.3525H13.3612C13.3723 12.769 13.3836 12.7704 13.395 12.7706H13.865C13.8981 12.7706 13.9299 12.7575 13.9534 12.734C13.9768 12.7106 13.99 12.6788 13.99 12.6456V9.74313C13.9903 9.72651 13.9873 9.70998 13.9812 9.69453C13.9751 9.67907 13.9659 9.665 13.9543 9.65312C13.9426 9.64125 13.9287 9.63182 13.9134 9.62538C13.8981 9.61894 13.8816 9.61563 13.865 9.61563Z" fill="#06C755"/>
</g>
<defs>
<clipPath id="clip0_341_499">
<rect width="20" height="20" fill="white" transform="translate(2 2)"/>
</clipPath>
</defs>
</svg>
