<svg width="25" height="24" viewBox="0 0 25 24" fill="none" xmlns="http://www.w3.org/2000/svg">
<g clip-path="url(#clip0_340_253)">
<path d="M20.8829 2.5H4.69171C3.91799 2.5 3.28931 3.11325 3.28931 3.86942V20.129C3.28931 20.8858 3.91799 21.5 4.69171 21.5H20.8829C21.658 21.5 22.2893 20.8858 22.2893 20.129V3.86942C22.2893 3.11325 21.658 2.5 20.8829 2.5Z" fill="#0977B6"/>
<path d="M7.51605 5.11578C8.41691 5.11578 9.14904 5.84807 9.14904 6.74925C9.14904 7.65124 8.41691 8.38362 7.51605 8.38362C6.61281 8.38362 5.88171 7.65124 5.88171 6.74925C5.88171 5.84807 6.61281 5.11578 7.51605 5.11578ZM6.10627 9.62319H8.92448V18.6905H6.10627V9.62319Z" fill="white"/>
<path d="M10.6919 9.62317H13.3952V10.862H13.4326C13.8086 10.1492 14.7279 9.39746 16.099 9.39746C18.9526 9.39746 19.4794 11.2755 19.4794 13.7168V18.6905H16.6633V14.2811C16.6633 13.2291 16.644 11.8766 15.1989 11.8766C13.7324 11.8766 13.5079 13.0222 13.5079 14.2049V18.6905H10.6919L10.6919 9.62317Z" fill="white"/>
</g>
<defs>
<clipPath id="clip0_340_253">
<rect width="19" height="19" fill="white" transform="translate(3.28931 2.5)"/>
</clipPath>
</defs>
</svg>
