<svg width="70" height="22" viewBox="0 0 70 22" fill="none" xmlns="http://www.w3.org/2000/svg">
<path d="M16.388 20.3396C16.388 21.2566 12.9052 22 8.60888 22C4.31259 22 0.829771 21.2566 0.829771 20.3396C0.829771 19.4226 4.31259 18.6792 8.60888 18.6792C12.9052 18.6792 16.388 19.4226 16.388 20.3396Z" fill="#F16552"/>
<path fill-rule="evenodd" clip-rule="evenodd" d="M0.246723 13.129C0.246723 15.8093 2.71797 17.0113 5.13421 17.0188C10.7877 17.0188 17.0427 13.5437 17.0102 7.72814C16.9867 3.53534 13.1342 -0.0340564 8.5753 0.000245195C4.23724 0.000245195 0.000286497 2.83266 0 6.69136C0 7.72762 0.594481 8.7301 2.14849 8.84297C0.852772 10.126 0.246723 11.6633 0.246723 13.129ZM8.59021 9.33962C9.49644 9.33962 10.2311 8.45686 10.2311 7.36792C10.2311 6.27898 9.49644 5.39623 8.59021 5.39623C7.68398 5.39623 6.94933 6.27898 6.94933 7.36792C6.94933 8.45686 7.68398 9.33962 8.59021 9.33962ZM13.295 9.33962C14.2012 9.33962 14.9359 8.45686 14.9359 7.36793C14.9359 6.27899 14.2012 5.39623 13.295 5.39623C12.3888 5.39623 11.6541 6.27899 11.6541 7.36793C11.6541 8.45686 12.3888 9.33962 13.295 9.33962Z" fill="#F16552"/>
<path d="M24.5603 17.9553C24.836 17.9553 25.0616 17.728 25.0616 17.4501C25.0616 15.9848 25.0616 14.5195 25.0616 13.0541C25.9389 13.0541 26.8162 13.0541 27.6935 13.0541C30.7264 13.0541 32.9572 10.8064 32.9572 7.75045C32.9572 4.69454 30.7264 2.4468 27.6935 2.4468H23.1817C22.906 2.4468 22.6804 2.6741 22.6804 2.95191V17.4501C22.6804 17.728 22.906 17.9553 23.1817 17.9553H24.5603ZM25.0616 10.6548C25.0616 8.71858 25.0616 6.78232 25.0616 4.84607C25.9389 4.84607 26.8162 4.84607 27.6935 4.84607C29.3478 4.84607 30.5008 6.03308 30.5008 7.75045C30.5008 9.46783 29.3478 10.6548 27.6935 10.6548C26.8162 10.6548 25.9389 10.6548 25.0616 10.6548Z" fill="#222224"/>
<path d="M36.2063 17.9553C36.482 17.9553 36.7076 17.728 36.7076 17.4501V11.3888C36.7076 8.71174 38.4873 7.70152 40.4674 7.70152H40.9687C41.2445 7.70152 41.47 7.47422 41.47 7.19641V5.83261C41.47 5.5548 41.2445 5.3275 40.9687 5.3275H40.4674C37.459 5.3275 36.42 7.41526 36.42 7.41526C36.42 7.41526 36.42 6.11334 36.42 5.83261C36.42 5.43408 36.1944 5.3275 35.9187 5.3275H34.953C34.6773 5.3275 34.4517 5.5548 34.4517 5.83261V17.4501C34.4517 17.728 34.6773 17.9553 34.953 17.9553H36.2063Z" fill="#222224"/>
<path d="M44.7013 17.9553C44.9771 17.9553 45.2026 17.728 45.2026 17.4501V5.83261C45.2026 5.5548 44.9771 5.3275 44.7013 5.3275H43.3979C43.1222 5.3275 42.8966 5.5548 42.8966 5.83261V17.4501C42.8966 17.728 43.1222 17.9553 43.3979 17.9553H44.7013Z" fill="#222224"/>
<path d="M52.9994 17.9553C53.2249 17.9553 53.3753 17.829 53.4756 17.5764L57.8119 6.11042C57.8621 5.98415 57.9122 5.83261 57.9122 5.68108C57.9122 5.50429 57.7117 5.3275 57.4109 5.3275H55.8568C55.6312 5.3275 55.4808 5.42852 55.3806 5.70634C54.366 8.64091 52.2943 14.3211 52.2943 14.3211C52.2943 14.3211 50.2314 8.64772 49.2145 5.70634C49.1142 5.42852 48.9638 5.3275 48.7382 5.3275H47.1842C46.8834 5.3275 46.6829 5.50429 46.6829 5.70634C46.6829 5.83261 46.733 5.98415 46.7831 6.11042L51.1445 17.5764C51.2448 17.829 51.3952 17.9553 51.6208 17.9553H52.9994Z" fill="#222224"/>
<path d="M63.4028 22C63.6284 22 63.7788 21.899 63.879 21.6212L69.7554 6.11042C69.8055 5.98415 69.8557 5.83261 69.8557 5.70634C69.8557 5.50429 69.6552 5.3275 69.3544 5.3275H67.8254C67.5998 5.3275 67.4494 5.42852 67.3491 5.70634C66.4087 8.40763 64.3914 14.3211 64.3914 14.3211C64.3914 14.3211 62.2332 8.43544 61.2081 5.70634C61.1078 5.42852 60.9574 5.3275 60.7319 5.3275H59.2029C58.9021 5.3275 58.7016 5.50429 58.7016 5.70634C58.7016 5.83261 58.7517 5.98415 58.8018 6.11042L62.9877 16.8188C63.0379 16.945 63.0629 17.0208 63.0629 17.0713C63.0629 17.1471 63.0379 17.1976 62.9877 17.3491L61.6231 21.2676C61.573 21.3939 61.5479 21.4949 61.5479 21.5959C61.5479 21.798 61.7234 22 62.0492 22H63.4028Z" fill="#222224"/>
</svg>
