<svg width="24" height="24" viewBox="0 0 24 24" fill="none" xmlns="http://www.w3.org/2000/svg">
<path d="M19.0433 4.87438C17.7479 4.26174 16.3587 3.81038 14.9063 3.55187C14.8799 3.54688 14.8534 3.55934 14.8398 3.58428C14.6612 3.91179 14.4633 4.33905 14.3247 4.67487C12.7625 4.43382 11.2084 4.43382 9.67821 4.67487C9.5396 4.33158 9.33452 3.91179 9.15507 3.58428C9.14144 3.56018 9.11502 3.54771 9.08857 3.55187C7.63694 3.80955 6.24781 4.26092 4.95159 4.87438C4.94037 4.87937 4.93075 4.88769 4.92437 4.89849C2.28947 8.95581 1.56766 12.9134 1.92176 16.8219C1.92336 16.841 1.93378 16.8593 1.9482 16.871C3.68663 18.1868 5.37059 18.9857 7.02329 19.5152C7.04974 19.5235 7.07776 19.5135 7.09459 19.491C7.48554 18.9408 7.83403 18.3606 8.13283 17.7504C8.15046 17.7147 8.13363 17.6723 8.09759 17.6581C7.54482 17.442 7.01848 17.1785 6.51217 16.8793C6.47212 16.8552 6.46891 16.7961 6.50576 16.7679C6.6123 16.6856 6.71888 16.6 6.82061 16.5135C6.83902 16.4977 6.86467 16.4944 6.88631 16.5044C10.2125 18.0696 13.8136 18.0696 17.1006 16.5044C17.1222 16.4936 17.1479 16.4969 17.1671 16.5127C17.2688 16.5991 17.3754 16.6856 17.4827 16.7679C17.5196 16.7961 17.5172 16.8552 17.4771 16.8793C16.9708 17.1843 16.4445 17.442 15.8909 17.6573C15.8548 17.6715 15.8388 17.7147 15.8564 17.7504C16.1617 18.3597 16.5101 18.9399 16.8939 19.4902C16.9099 19.5135 16.9387 19.5235 16.9652 19.5152C18.6259 18.9857 20.3099 18.1868 22.0483 16.871C22.0635 16.8593 22.0731 16.8419 22.0747 16.8228C22.4985 12.3041 21.3649 8.37893 19.0697 4.89931C19.0641 4.88769 19.0545 4.87937 19.0433 4.87438ZM8.62955 14.442C7.62813 14.442 6.80298 13.4944 6.80298 12.3307C6.80298 11.1669 7.61212 10.2193 8.62955 10.2193C9.65496 10.2193 10.4721 11.1752 10.4561 12.3307C10.4561 13.4944 9.64695 14.442 8.62955 14.442ZM15.383 14.442C14.3816 14.442 13.5564 13.4944 13.5564 12.3307C13.5564 11.1669 14.3655 10.2193 15.383 10.2193C16.4084 10.2193 17.2255 11.1752 17.2095 12.3307C17.2095 13.4944 16.4084 14.442 15.383 14.442Z" fill="#5865F2"/>
</svg>
