<svg width="25" height="24" viewBox="0 0 25 24" fill="none" xmlns="http://www.w3.org/2000/svg">
<path fill-rule="evenodd" clip-rule="evenodd" d="M12.789 2C18.34 2 22.845 6.50777 22.845 12.0622C22.845 17.0809 19.1789 21.242 14.3631 21.9865V14.9741H16.7036L17.1489 12.0725H17.1355L17.1386 12.0518H14.3527V10.1865C14.3527 9.38857 14.7566 8.61137 15.9994 8.61137H17.2628V6.14505C17.2628 6.14505 17.2593 6.14441 17.2526 6.14321V6.13471C17.2526 6.13471 16.1134 5.92746 15.0156 5.92746C12.7165 5.92746 11.2252 7.32643 11.2252 9.84456V12.0622H8.65683V14.9637H8.66711V14.9741H11.2252V22C6.40952 21.2539 2.73303 17.0881 2.73303 12.0622C2.73303 6.50777 7.23802 2 12.789 2Z" fill="#1877F2"/>
</svg>
