<svg width="24" height="24" viewBox="0 0 24 24" fill="none" xmlns="http://www.w3.org/2000/svg">
<path d="M21.6001 12.2273C21.6001 11.5182 21.5365 10.8364 21.4183 10.1818H12.0001V14.05H17.3819C17.1501 15.3 16.4456 16.3591 15.3865 17.0682V19.5773H18.6183C20.5092 17.8364 21.6001 15.2727 21.6001 12.2273Z" fill="#4285F4"/>
<path d="M12.0001 22C14.7001 22 16.9637 21.1046 18.6182 19.5773L15.3864 17.0682C14.491 17.6682 13.3455 18.0227 12.0001 18.0227C9.39552 18.0227 7.19098 16.2637 6.40462 13.9H3.06372V16.4909C4.70917 19.7591 8.09098 22 12.0001 22Z" fill="#34A853"/>
<path d="M6.40466 13.9C6.20466 13.3 6.09102 12.6591 6.09102 12C6.09102 11.3409 6.20466 10.7 6.40466 10.1V7.50906H3.06376C2.36376 8.90257 1.99951 10.4405 2.00012 12C2.00012 13.6136 2.38649 15.1409 3.06376 16.4909L6.40466 13.9Z" fill="#FBBC05"/>
<path d="M12.0001 5.97729C13.4682 5.97729 14.7864 6.48184 15.8228 7.47275L18.691 4.60457C16.9591 2.99094 14.6955 2.00003 12.0001 2.00003C8.09098 2.00003 4.70917 4.24093 3.06372 7.50911L6.40462 10.1C7.19098 7.73638 9.39552 5.97729 12.0001 5.97729Z" fill="#EA4335"/>
</svg>
