<svg width="24" height="24" viewBox="0 0 24 24" fill="none" xmlns="http://www.w3.org/2000/svg">
<path d="M8.16168 20.5863C15.9576 20.5863 20.2234 13.9776 20.2234 8.25624C20.2234 8.07031 20.2234 7.88439 20.2151 7.69847C21.0418 7.08999 21.7611 6.32095 22.3315 5.45049C21.5709 5.79698 20.7525 6.02516 19.8927 6.13502C20.769 5.60261 21.4387 4.74905 21.7611 3.73493C20.9426 4.23354 20.0333 4.58848 19.066 4.78286C18.2889 3.93775 17.1894 3.41379 15.9741 3.41379C13.6345 3.41379 11.7331 5.35753 11.7331 7.74917C11.7331 8.08721 11.7744 8.41681 11.8405 8.73794C8.31876 8.56047 5.19379 6.82801 3.10221 4.20819C2.73845 4.85047 2.53178 5.59416 2.53178 6.38856C2.53178 7.89284 3.28408 9.21966 4.41668 9.99715C3.72224 9.9718 3.06914 9.77742 2.49871 9.45628C2.49871 9.47319 2.49871 9.49009 2.49871 9.51544C2.49871 11.6113 3.96199 13.3691 5.89649 13.7663C5.54101 13.8677 5.16899 13.9184 4.78043 13.9184C4.50762 13.9184 4.24307 13.8931 3.98679 13.8424C4.52415 15.5664 6.0949 16.8171 7.94673 16.8509C6.49172 18.0172 4.66469 18.7102 2.68059 18.7102C2.34163 18.7102 2.00268 18.6933 1.672 18.651C3.54036 19.868 5.77248 20.5863 8.16168 20.5863Z" fill="#1DA1F2"/>
</svg>
